<?xml version="1.0" standalone="no"?>
<!DOCTYPE svg PUBLIC "-//W3C//DTD SVG 20010904//EN"
 "http://www.w3.org/TR/2001/REC-SVG-20010904/DTD/svg10.dtd">
<svg version="1.0" xmlns="http://www.w3.org/2000/svg"
 width="560.000000pt" height="560.000000pt" viewBox="0 0 560.000000 560.000000"
 preserveAspectRatio="xMidYMid meet">
<metadata>
Created by potrace 1.14, written by Peter Selinger 2001-2017
</metadata>
<g transform="translate(0.000000,560.000000) scale(0.100000,-0.100000)"
fill="#000000" stroke="none">
<path d="M3116 5244 c-46 -26 -132 -53 -219 -69 -89 -17 -84 -16 -297 -40
-207 -23 -275 -39 -417 -96 -18 -8 -33 -17 -33 -21 0 -4 -6 -8 -14 -8 -20 0
-141 -84 -211 -145 -125 -110 -233 -302 -260 -464 -3 -19 -7 -37 -9 -40 -4 -7
-14 -75 -26 -181 -5 -41 -7 -170 -6 -287 l3 -211 -52 -26 c-28 -14 -56 -31
-62 -38 -17 -21 -27 -150 -27 -368 -1 -172 2 -210 15 -235 27 -48 75 -93 124
-115 41 -19 45 -24 46 -58 1 -75 36 -213 83 -327 94 -232 316 -463 519 -540
l47 -18 0 -168 0 -169 -69 0 c-44 0 -71 4 -73 12 -3 9 -16 9 -54 0 -27 -6
-100 -22 -162 -36 -312 -70 -521 -184 -738 -400 -212 -213 -330 -428 -395
-719 -16 -68 -22 -142 -26 -284 l-5 -193 2001 0 2001 0 0 154 c0 436 -144 777
-453 1072 -200 192 -440 316 -712 369 -49 9 -94 21 -100 25 -17 14 -115 23
-115 11 0 -7 -27 -11 -70 -11 l-70 0 0 164 0 163 59 27 c124 56 256 160 364
290 38 45 118 184 148 256 34 85 68 217 76 298 l6 62 50 26 c53 26 86 58 115
109 15 26 17 60 16 235 0 229 -10 348 -30 370 -7 8 -43 29 -79 45 l-67 30 8
70 c13 114 12 433 -2 535 -13 99 -51 268 -64 285 -4 6 -11 21 -15 34 -26 85
-149 222 -298 335 -43 32 -81 65 -84 73 -3 7 3 37 14 66 35 95 17 105 -109 58
l-77 -29 12 32 c13 32 12 66 -2 66 -18 0 -79 -25 -113 -47 -52 -32 -60 -29
-35 15 34 63 7 90 -57 56z"/>
</g>
</svg>
